<svg xmlns="http://www.w3.org/2000/svg" viewBox="0 0 32 32">
  <!-- Rounded square background -->
  <rect width="32" height="32" rx="7" fill="#0f172a"/>
  <!-- Document page -->
  <path d="M8 5h10l5 5v16a1 1 0 0 1-1 1H8a1 1 0 0 1-1-1V6a1 1 0 0 1 1-1z" fill="#f1f5f9"/>
  <!-- Corner fold -->
  <path d="M18 5l5 5h-4a1 1 0 0 1-1-1V5z" fill="#94a3b8"/>
  <!-- Blue heading bar -->
  <rect x="10" y="13" width="8" height="2" rx="1" fill="#2563eb"/>
  <!-- Grey text lines -->
  <rect x="10" y="17.5" width="11" height="1.5" rx=".75" fill="#cbd5e1"/>
  <rect x="10" y="21" width="9" height="1.5" rx=".75" fill="#cbd5e1"/>
  <rect x="10" y="24.5" width="7" height="1.5" rx=".75" fill="#cbd5e1"/>
</svg>
