<svg xmlns="http://www.w3.org/2000/svg" viewBox="0 0 32 32">
  <rect width="32" height="32" rx="7" fill="#0f172a"/>
  <path d="M12.5 9h6l4 4v11a1.5 1.5 0 0 1-1.5 1.5h-8.5a1.5 1.5 0 0 1-1.5-1.5V10.5a1.5 1.5 0 0 1 1.5-1.5z" fill="#f1f5f9"/>
  <path d="M18.5 9l4 4h-3a1 1 0 0 1-1-1V9z" fill="#94a3b8"/>
  <rect x="13.5" y="16" width="5" height="1.2" rx=".6" fill="#2563eb"/>
  <rect x="13.5" y="19" width="7" height=".8" rx=".4" fill="#cbd5e1"/>
  <rect x="13.5" y="21" width="5.5" height=".8" rx=".4" fill="#cbd5e1"/>
  <rect x="13.5" y="23" width="4" height=".8" rx=".4" fill="#cbd5e1"/>
</svg>
